<?xml version="1.0" standalone="no"?>
<!DOCTYPE svg PUBLIC "-//W3C//DTD SVG 20010904//EN"
 "http://www.w3.org/TR/2001/REC-SVG-20010904/DTD/svg10.dtd">
<svg version="1.0" xmlns="http://www.w3.org/2000/svg"
 width="4680.000000pt" height="2160.000000pt" viewBox="0 0 4680.000000 2160.000000"
 preserveAspectRatio="xMidYMid meet">
<metadata>
Created by potrace 1.13, written by Peter Selinger 2001-2015
</metadata>
<g transform="translate(0.000000,2160.000000) scale(0.100000,-0.100000)"
fill="#000000" stroke="none">
<path d="M24870 15729 c-206 -16 -432 -92 -575 -193 -142 -102 -257 -267 -285
-411 -17 -83 -14 -257 5 -329 44 -165 173 -310 361 -404 104 -52 259 -101 549
-173 407 -100 511 -139 597 -222 51 -50 68 -92 68 -169 0 -80 -23 -130 -84
-186 -94 -86 -224 -124 -426 -126 -345 -1 -560 139 -601 392 l-12 72 -283 0
-283 0 6 -72 c8 -116 30 -206 68 -287 130 -274 370 -435 758 -508 133 -25 525
-25 652 0 267 53 467 153 600 299 68 76 140 215 160 313 19 89 19 250 0 338
-50 238 -285 442 -605 526 -63 17 -250 64 -415 104 -344 85 -446 120 -503 176
-92 89 -77 242 34 339 107 95 318 125 532 76 150 -34 255 -121 292 -241 11
-36 20 -78 20 -94 l0 -29 286 0 287 0 -6 88 c-21 318 -242 562 -603 667 -161
47 -402 68 -594 54z"/>
<path d="M15360 14415 l0 -1265 295 0 295 0 0 1265 0 1265 -295 0 -295 0 0
-1265z"/>
<path d="M16470 14415 l0 -1265 275 0 275 0 0 846 c0 485 4 843 9 840 5 -3
258 -384 562 -846 l554 -840 298 0 297 0 0 1265 0 1265 -275 0 -275 0 0 -850
c0 -467 -3 -850 -7 -850 -5 1 -260 383 -568 850 l-559 850 -293 0 -293 0 0
-1265z"/>
<path d="M18980 15672 c0 -5 194 -573 430 -1262 237 -689 430 -1255 430 -1257
0 -2 152 -2 337 -1 l337 3 437 1243 c241 683 441 1252 444 1262 6 20 0 20
-297 20 l-304 0 -299 -881 c-165 -484 -303 -885 -307 -892 -4 -6 -9 -9 -11 -7
-2 3 -62 178 -132 390 -70 212 -204 611 -298 888 l-169 502 -299 0 c-165 0
-299 -4 -299 -8z"/>
<path d="M21640 14415 l0 -1265 1015 0 1015 0 0 230 0 230 -725 0 -725 0 2
313 3 312 648 3 647 2 0 210 0 210 -647 2 -648 3 -3 273 -2 272 710 0 710 0 0
235 0 235 -1000 0 -1000 0 0 -1265z"/>
<path d="M26310 15445 l0 -235 400 0 400 0 0 -1030 0 -1030 295 0 295 0 0
1030 0 1030 400 0 400 0 0 235 0 235 -1095 0 -1095 0 0 -235z"/>
<path d="M28820 14415 l0 -1265 275 0 275 0 1 888 c0 853 1 885 18 847 9 -22
159 -421 331 -887 l314 -848 231 0 230 0 324 884 c178 486 327 890 332 897 5
8 9 -373 9 -883 l0 -898 275 0 275 0 0 1265 0 1265 -414 0 -413 0 -26 -72
c-14 -40 -148 -430 -297 -867 -149 -437 -273 -797 -275 -800 -3 -2 -7 -2 -9 0
-2 2 -145 394 -317 872 l-312 867 -414 0 -413 0 0 -1265z"/>
<path d="M32230 14415 l0 -1265 1020 0 1020 0 0 230 0 230 -725 0 -725 0 2
313 3 312 648 3 647 2 0 210 0 210 -647 2 -648 3 -3 273 -2 272 710 0 710 0 0
235 0 235 -1005 0 -1005 0 0 -1265z"/>
<path d="M34670 14415 l0 -1265 275 0 275 0 0 845 c0 465 3 845 8 844 4 0 257
-380 562 -844 l555 -845 298 0 297 0 0 1265 0 1265 -275 0 -275 0 0 -850 c0
-467 -3 -850 -7 -849 -5 0 -260 382 -567 850 l-560 849 -293 0 -293 0 0 -1265z"/>
<path d="M37250 15445 l0 -235 405 0 405 0 0 -1030 0 -1030 290 0 290 0 0
1030 0 1030 405 0 405 0 0 235 0 235 -1100 0 -1100 0 0 -235z"/>
<path d="M10664 12446 c-3 -7 -3 -409 -1 -892 3 -840 4 -885 25 -1019 100
-647 319 -1190 671 -1663 127 -171 402 -445 573 -573 115 -86 298 -201 434
-274 l51 -27 129 72 c505 283 891 672 1177 1186 227 408 388 933 437 1423 6
61 10 445 10 942 l0 839 -1750 0 c-1477 0 -1751 -2 -1756 -14z m3281 -971 c0
-821 0 -825 -57 -1115 -160 -825 -587 -1517 -1199 -1942 -122 -85 -267 -168
-284 -162 -8 4 4 30 39 82 61 91 115 219 147 351 l23 94 22 -28 22 -28 14 29
c8 16 34 78 58 137 24 60 60 132 82 160 21 29 41 62 44 74 7 26 -38 111 -63
120 -11 4 -1 17 36 50 29 26 54 58 61 80 16 45 7 120 -19 170 -48 93 -215 261
-411 411 -47 36 -89 69 -94 73 -15 13 -7 108 12 152 18 40 22 43 82 55 74 16
148 51 207 98 l42 34 16 -57 c46 -158 123 -272 238 -354 66 -48 267 -153 275
-144 2 1 -5 20 -16 42 -11 21 -25 56 -30 78 l-11 40 73 -77 c50 -53 87 -104
119 -164 l45 -88 19 59 c27 89 24 291 -6 405 -25 97 -38 275 -23 335 9 37 10
33 12 -45 1 -47 5 -96 9 -110 7 -23 8 -23 15 12 3 20 26 79 51 130 92 196 113
347 75 558 -12 69 -22 145 -21 168 1 26 -5 54 -13 68 -17 25 -100 55 -211 75
l-64 12 20 25 c32 42 25 55 -18 33 -55 -27 -80 -31 -258 -36 -88 -3 -209 -10
-268 -16 -60 -6 -111 -9 -113 -6 -10 10 59 88 98 111 47 27 151 55 208 56 l35
1 -23 19 c-38 31 -119 51 -234 57 -60 3 -108 10 -108 15 0 6 9 21 20 35 11 15
19 27 17 29 -1 2 -65 -17 -142 -41 -76 -24 -141 -42 -144 -40 -7 8 28 75 61
117 25 33 27 38 11 38 -27 0 -113 -43 -151 -75 -18 -15 -50 -53 -71 -84 -21
-31 -48 -64 -59 -74 -20 -18 -21 -18 -39 15 -14 27 -18 58 -18 168 -1 148 -9
181 -66 275 -18 29 -56 80 -85 112 l-53 58 -1 -56 c0 -31 -4 -80 -10 -108 -7
-39 -7 -59 2 -74 7 -13 14 -84 18 -167 6 -163 20 -207 80 -247 43 -30 11 -32
-36 -3 -58 36 -78 95 -85 250 -6 149 -21 200 -79 285 -34 49 -158 185 -169
185 -3 0 -4 -39 -3 -87 5 -118 -12 -220 -55 -325 -23 -57 -35 -106 -36 -141
l-2 -53 -42 45 -43 46 14 -35 c8 -19 21 -77 29 -129 l15 -94 -35 41 c-46 56
-71 57 -43 2 54 -106 62 -246 20 -371 -47 -139 -58 -157 -109 -175 -78 -29
-82 -36 -88 -165 l-5 -114 -121 -182 c-67 -101 -124 -183 -128 -183 -3 0 -16
51 -28 113 -49 254 -51 284 -51 1105 l0 772 1528 -2 1527 -3 0 -760z m-2380
-1263 c1 2 10 17 18 33 l16 30 -6 -48 c-6 -48 -5 -49 45 -100 39 -39 49 -56
42 -67 -8 -12 -18 -6 -59 34 l-49 49 -12 -44 c-19 -72 -61 -193 -70 -202 -11
-13 7 75 35 169 14 45 25 87 25 94 0 6 -18 33 -41 60 -54 64 -43 91 14 31 21
-23 40 -41 42 -39z m272 -200 c13 24 22 34 19 23 -20 -90 -21 -88 44 -135 41
-31 59 -52 60 -67 0 -13 -3 -23 -6 -23 -3 0 -30 20 -61 45 -30 25 -58 45 -62
45 -4 0 -24 -53 -44 -117 -21 -65 -42 -125 -47 -133 -20 -32 -10 30 25 144 19
64 35 120 35 125 0 5 -23 32 -52 59 -37 36 -49 54 -45 66 6 15 15 11 59 -29
l52 -46 23 43z m278 -270 c2 2 13 24 25 48 15 33 19 37 15 16 -3 -15 -8 -41
-12 -56 -5 -26 1 -32 66 -76 45 -30 71 -54 71 -65 0 -11 -2 -19 -5 -19 -3 0
-37 21 -76 46 -38 26 -71 45 -73 43 -2 -2 -22 -62 -45 -134 -42 -134 -68 -192
-56 -125 4 19 22 85 41 146 19 62 34 118 34 126 0 7 -12 21 -27 30 -58 35 -97
74 -90 91 5 15 16 10 67 -29 34 -25 63 -44 65 -42z m384 -164 c-6 -24 -12 -51
-15 -60 -4 -12 13 -27 66 -58 38 -22 70 -45 70 -50 0 -15 -4 -13 -79 25 l-69
34 -37 -117 c-40 -129 -84 -245 -84 -222 0 22 23 111 62 240 20 63 35 115 34
115 -1 1 -35 20 -74 44 -52 30 -73 48 -73 62 0 13 4 18 13 13 6 -4 40 -25 74
-47 56 -35 83 -41 83 -18 0 12 29 81 34 81 2 0 0 -19 -5 -42z m-16 -725 c-7
-38 -24 -104 -39 -148 -27 -83 -104 -258 -111 -252 -2 2 3 20 12 40 37 88 94
366 95 462 0 18 3 17 27 -8 27 -26 27 -27 16 -94z"/>
<path d="M31080 12129 c-599 -39 -1034 -411 -1161 -991 -31 -142 -42 -318 -29
-468 51 -610 422 -1034 1010 -1157 65 -14 131 -18 280 -17 169 0 205 3 272 22
181 50 277 103 400 221 49 46 90 82 92 80 1 -2 16 -66 31 -141 l28 -138 189 0
188 0 0 685 0 685 -565 0 -565 0 0 -205 0 -205 295 0 295 0 0 -31 c0 -17 -7
-59 -16 -93 -71 -275 -288 -426 -614 -426 -218 0 -371 59 -506 194 -66 66 -90
98 -128 176 -147 300 -139 731 19 1016 58 104 170 211 275 263 105 51 194 71
326 71 119 0 226 -24 314 -71 106 -56 208 -184 249 -311 l13 -38 279 0 279 0
0 23 c0 52 -44 199 -84 282 -192 394 -630 610 -1166 574z"/>
<path d="M15360 10816 l0 -1266 728 0 c620 0 743 2 823 16 242 41 434 141 556
288 98 120 137 242 137 426 -1 306 -132 506 -403 612 l-81 32 67 35 c37 20 98
65 135 100 121 113 166 245 155 448 -18 314 -199 488 -572 549 -84 14 -214 18
-822 21 l-723 5 0 -1266z m1255 824 c110 -16 164 -39 221 -95 62 -61 79 -113
72 -218 -8 -122 -67 -201 -184 -248 -57 -23 -69 -24 -416 -27 l-358 -3 0 300
0 301 298 0 c163 0 329 -5 367 -10z m138 -984 c125 -35 197 -90 239 -181 20
-43 23 -66 23 -160 0 -105 -2 -113 -31 -165 -54 -96 -146 -148 -298 -169 -43
-6 -226 -11 -407 -11 l-329 0 0 356 0 356 373 -5 c303 -3 383 -7 430 -21z"/>
<path d="M18238 10815 l-506 -1265 297 0 296 0 104 280 104 280 502 0 c470 0
503 -1 510 -17 4 -10 46 -128 95 -263 48 -135 91 -253 95 -262 7 -17 31 -18
312 -18 240 0 304 3 300 13 -43 108 -935 2358 -962 2425 l-37 92 -302 0 -301
0 -507 -1265z m820 608 c5 -16 80 -221 166 -457 86 -236 156 -432 156 -437 0
-5 -154 -9 -346 -9 -273 0 -345 3 -342 13 40 117 345 917 350 917 3 0 10 -12
16 -27z"/>
<path d="M20590 10815 l0 -1265 275 0 275 0 0 846 c0 465 4 843 8 840 5 -3
258 -383 562 -846 l554 -840 298 0 298 0 0 1265 0 1265 -275 0 -275 0 0 -850
c0 -467 -3 -850 -7 -850 -5 0 -260 383 -568 850 l-560 850 -292 0 -293 0 0
-1265z"/>
<path d="M23380 10815 l0 -1265 295 0 295 0 0 404 0 404 167 160 c92 89 170
159 174 156 4 -2 186 -256 405 -564 l397 -560 370 0 c294 0 367 3 360 13 -30
37 -1120 1494 -1126 1504 -4 7 192 201 518 512 l525 501 -368 0 -367 0 -527
-527 -528 -528 0 528 0 527 -295 0 -295 0 0 -1265z"/>
<path d="M26100 10815 l0 -1265 295 0 295 0 0 1265 0 1265 -295 0 -295 0 0
-1265z"/>
<path d="M27210 10815 l0 -1265 275 0 275 0 0 847 c0 717 2 845 14 833 7 -8
260 -390 561 -847 l548 -833 299 0 298 0 0 1265 0 1265 -275 0 -275 0 0 -850
c0 -467 -3 -850 -7 -850 -5 0 -260 383 -568 850 l-560 850 -292 0 -293 0 0
-1265z"/>
<path d="M12005 7780 c-318 -27 -590 -146 -790 -345 -130 -128 -238 -311 -288
-485 -48 -167 -62 -432 -32 -606 44 -249 159 -468 333 -636 165 -158 355 -257
607 -313 96 -22 421 -31 556 -16 195 23 404 78 567 151 l72 33 0 608 0 609
-475 0 -475 0 0 -225 0 -225 220 0 220 0 0 -210 0 -209 -64 -20 c-35 -11 -111
-25 -168 -31 -396 -45 -692 133 -790 475 -30 107 -33 354 -4 455 58 206 191
365 378 449 88 40 166 55 288 53 179 -1 336 -58 453 -163 l51 -46 171 194 c93
107 171 198 173 202 5 13 -125 107 -208 150 -220 115 -530 173 -795 151z"/>
<path d="M6680 7485 l0 -235 325 0 325 0 0 -915 0 -915 275 0 275 0 0 915 0
915 325 0 325 0 0 235 0 235 -925 0 -925 0 0 -235z"/>
<path d="M8950 6570 l0 -1150 275 0 275 0 0 450 0 450 445 0 445 0 0 230 0
230 -445 0 -445 0 0 235 0 235 480 0 480 0 0 235 0 235 -755 0 -755 0 0 -1150z"/>
</g>
</svg>
