<?xml version="1.0" standalone="no"?>
<!DOCTYPE svg PUBLIC "-//W3C//DTD SVG 20010904//EN"
 "http://www.w3.org/TR/2001/REC-SVG-20010904/DTD/svg10.dtd">
<svg version="1.0" xmlns="http://www.w3.org/2000/svg"
 width="4680.000000pt" height="2160.000000pt" viewBox="0 0 4680.000000 2160.000000"
 preserveAspectRatio="xMidYMid meet">
<metadata>
Created by potrace 1.13, written by Peter Selinger 2001-2015
</metadata>
<g transform="translate(0.000000,2160.000000) scale(0.100000,-0.100000)"
fill="#000000" stroke="none">
<path d="M8170 11005 l-6115 -6115 410 0 410 0 5708 5708 5707 5707 -2 408 -3
407 -6115 -6115z"/>
<path d="M25355 15729 c-192 -13 -346 -54 -508 -135 -131 -66 -201 -116 -308
-223 -221 -221 -340 -492 -369 -845 -20 -247 17 -491 106 -699 161 -377 470
-620 905 -714 120 -26 487 -26 609 0 399 84 697 304 867 641 110 218 148 409
140 701 -7 267 -43 414 -153 627 -235 455 -697 687 -1289 647z m303 -475 c235
-48 418 -218 501 -469 107 -323 68 -709 -97 -953 -152 -223 -445 -327 -750
-267 -239 48 -432 233 -512 490 -70 227 -65 508 14 736 44 131 86 199 177 290
88 88 198 149 314 173 94 19 258 20 353 0z"/>
<path d="M33870 15730 c-304 -22 -554 -120 -767 -302 -301 -256 -464 -704
-423 -1161 53 -600 417 -1025 985 -1149 131 -28 405 -36 551 -14 196 29 375
98 518 200 75 54 198 181 249 259 90 136 164 337 182 495 l7 62 -286 0 c-262
0 -286 -1 -286 -17 0 -41 -35 -155 -71 -231 -49 -103 -142 -205 -228 -251
-127 -67 -306 -89 -478 -56 -193 36 -366 171 -457 355 -142 290 -142 689 2
980 88 181 258 316 447 355 91 19 243 19 325 -1 201 -47 384 -209 429 -381
l12 -43 285 0 285 0 -7 38 c-33 193 -106 350 -230 497 -119 140 -343 271 -554
324 -103 26 -153 33 -335 45 -27 2 -97 0 -155 -4z"/>
<path d="M38955 15729 c-538 -36 -955 -354 -1119 -855 -95 -290 -95 -656 0
-944 143 -430 472 -715 945 -817 120 -26 487 -26 609 0 548 116 908 496 997
1052 23 150 14 443 -20 585 -76 319 -246 581 -488 753 -94 67 -278 152 -389
181 -164 43 -341 58 -535 45z m303 -475 c148 -29 300 -125 385 -242 135 -183
203 -492 166 -759 -48 -357 -216 -586 -494 -673 -98 -31 -282 -38 -396 -16
-201 39 -371 170 -463 356 -121 247 -139 573 -47 861 41 126 91 209 182 300
88 88 198 149 314 173 94 19 258 20 353 0z"/>
<path d="M15360 14415 l0 -1265 295 0 295 0 0 1265 0 1265 -295 0 -295 0 0
-1265z"/>
<path d="M16470 14415 l0 -1265 275 0 275 0 0 846 c0 485 4 843 9 840 5 -3
258 -384 562 -846 l554 -840 298 0 297 0 0 1265 0 1265 -275 0 -275 0 0 -850
c0 -467 -3 -850 -7 -850 -5 1 -260 383 -568 850 l-559 850 -293 0 -293 0 0
-1265z"/>
<path d="M19050 15445 l0 -235 405 0 405 0 0 -1030 0 -1030 290 0 290 0 0
1030 0 1030 405 0 405 0 0 235 0 235 -1100 0 -1100 0 0 -235z"/>
<path d="M21560 14416 l0 -1266 295 0 295 0 2 493 3 492 265 3 c521 6 629 -25
714 -201 43 -87 60 -172 81 -383 19 -197 33 -293 51 -355 l15 -49 294 0 294 0
-25 45 c-36 64 -62 204 -74 405 -6 96 -18 216 -26 267 -36 237 -141 384 -319
449 l-60 22 50 23 c149 66 244 155 307 284 49 103 68 193 68 330 0 131 -15
199 -69 310 -89 182 -273 318 -501 371 -67 15 -159 18 -867 21 l-793 4 0
-1265z m1433 804 c92 -31 158 -91 188 -168 32 -81 32 -242 1 -323 -25 -64 -75
-120 -132 -149 -90 -46 -132 -50 -527 -50 l-373 0 0 361 0 361 388 -4 c376 -4
389 -5 455 -28z"/>
<path d="M27210 14416 l0 -1266 663 0 c384 0 691 5 732 10 238 34 450 132 608
280 188 176 297 388 348 676 27 155 30 440 5 589 -44 267 -145 475 -310 641
-125 125 -271 212 -456 268 -186 57 -201 58 -922 63 l-668 5 0 -1266z m1305
760 c256 -78 394 -230 456 -505 29 -126 36 -369 15 -489 -43 -246 -162 -419
-351 -508 -119 -56 -186 -64 -530 -64 l-305 0 0 801 0 801 313 -4 c305 -5 314
-5 402 -32z"/>
<path d="M29990 14848 c0 -505 4 -868 10 -923 46 -399 252 -651 628 -769 136
-43 244 -58 447 -63 309 -8 509 28 712 127 215 106 346 248 423 459 63 173 63
160 67 1124 l4 877 -295 0 -295 0 -3 -872 c-3 -787 -5 -879 -21 -930 -69 -232
-191 -313 -487 -325 -313 -13 -494 82 -572 298 l-23 64 -3 883 -3 882 -294 0
-295 0 0 -832z"/>
<path d="M35370 15445 l0 -235 405 0 405 0 0 -1030 0 -1030 290 0 290 0 0
1030 0 1030 405 0 405 0 0 235 0 235 -1100 0 -1100 0 0 -235z"/>
<path d="M40810 14415 l0 -1265 295 0 295 0 0 495 0 495 283 0 c491 -1 581
-21 671 -153 63 -94 92 -218 116 -507 11 -132 32 -257 50 -306 l10 -24 290 0
c266 0 314 4 280 25 -16 10 -57 156 -68 245 -6 47 -14 139 -17 205 -16 313
-65 474 -182 591 -43 43 -168 114 -200 114 -30 0 -6 18 77 58 206 99 314 278
327 543 4 89 2 134 -11 195 -54 245 -235 431 -500 513 -113 35 -258 41 -1003
41 l-713 0 0 -1265z m1362 821 c194 -35 281 -142 280 -346 0 -151 -54 -260
-154 -311 -85 -43 -143 -49 -530 -49 l-368 0 0 360 0 360 348 0 c249 -1 369
-5 424 -14z"/>
<path d="M43112 15658 c8 -13 232 -363 496 -779 l482 -756 0 -487 0 -486 290
0 290 0 0 480 0 480 493 772 c272 425 497 779 501 786 6 9 -61 12 -321 12
l-328 0 -310 -500 c-170 -274 -312 -499 -315 -499 -3 -1 -145 223 -317 497
l-311 497 -332 3 -332 2 14 -22z"/>
<path d="M10664 12446 c-3 -7 -3 -409 -1 -892 3 -840 4 -885 25 -1019 100
-647 319 -1190 671 -1663 127 -171 402 -445 573 -573 115 -86 298 -201 434
-274 l51 -27 129 72 c505 283 891 672 1177 1186 227 408 388 933 437 1423 6
61 10 445 10 942 l0 839 -1750 0 c-1477 0 -1751 -2 -1756 -14z m3281 -971 c0
-821 0 -825 -57 -1115 -160 -825 -587 -1517 -1199 -1942 -122 -85 -267 -168
-284 -162 -8 4 4 30 39 82 61 91 115 219 147 351 l23 94 22 -28 22 -28 14 29
c8 16 34 78 58 137 24 60 60 132 82 160 21 29 41 62 44 74 7 26 -38 111 -63
120 -11 4 -1 17 36 50 29 26 54 58 61 80 16 45 7 120 -19 170 -48 93 -215 261
-411 411 -47 36 -89 69 -94 73 -15 13 -7 108 12 152 18 40 22 43 82 55 74 16
148 51 207 98 l42 34 16 -57 c46 -158 123 -272 238 -354 66 -48 267 -153 275
-144 2 1 -5 20 -16 42 -11 21 -25 56 -30 78 l-11 40 73 -77 c50 -53 87 -104
119 -164 l45 -88 19 59 c27 89 24 291 -6 405 -25 97 -38 275 -23 335 9 37 10
33 12 -45 1 -47 5 -96 9 -110 7 -23 8 -23 15 12 3 20 26 79 51 130 92 196 113
347 75 558 -12 69 -22 145 -21 168 1 26 -5 54 -13 68 -17 25 -100 55 -211 75
l-64 12 20 25 c32 42 25 55 -18 33 -55 -27 -80 -31 -258 -36 -88 -3 -209 -10
-268 -16 -60 -6 -111 -9 -113 -6 -10 10 59 88 98 111 47 27 151 55 208 56 l35
1 -23 19 c-38 31 -119 51 -234 57 -60 3 -108 10 -108 15 0 6 9 21 20 35 11 15
19 27 17 29 -1 2 -65 -17 -142 -41 -76 -24 -141 -42 -144 -40 -7 8 28 75 61
117 25 33 27 38 11 38 -27 0 -113 -43 -151 -75 -18 -15 -50 -53 -71 -84 -21
-31 -48 -64 -59 -74 -20 -18 -21 -18 -39 15 -14 27 -18 58 -18 168 -1 148 -9
181 -66 275 -18 29 -56 80 -85 112 l-53 58 -1 -56 c0 -31 -4 -80 -10 -108 -7
-39 -7 -59 2 -74 7 -13 14 -84 18 -167 6 -163 20 -207 80 -247 43 -30 11 -32
-36 -3 -58 36 -78 95 -85 250 -6 149 -21 200 -79 285 -34 49 -158 185 -169
185 -3 0 -4 -39 -3 -87 5 -118 -12 -220 -55 -325 -23 -57 -35 -106 -36 -141
l-2 -53 -42 45 -43 46 14 -35 c8 -19 21 -77 29 -129 l15 -94 -35 41 c-46 56
-71 57 -43 2 54 -106 62 -246 20 -371 -47 -139 -58 -157 -109 -175 -78 -29
-82 -36 -88 -165 l-5 -114 -121 -182 c-67 -101 -124 -183 -128 -183 -3 0 -16
51 -28 113 -49 254 -51 284 -51 1105 l0 772 1528 -2 1527 -3 0 -760z m-2380
-1263 c1 2 10 17 18 33 l16 30 -6 -48 c-6 -48 -5 -49 45 -100 39 -39 49 -56
42 -67 -8 -12 -18 -6 -59 34 l-49 49 -12 -44 c-19 -72 -61 -193 -70 -202 -11
-13 7 75 35 169 14 45 25 87 25 94 0 6 -18 33 -41 60 -54 64 -43 91 14 31 21
-23 40 -41 42 -39z m272 -200 c13 24 22 34 19 23 -20 -90 -21 -88 44 -135 41
-31 59 -52 60 -67 0 -13 -3 -23 -6 -23 -3 0 -30 20 -61 45 -30 25 -58 45 -62
45 -4 0 -24 -53 -44 -117 -21 -65 -42 -125 -47 -133 -20 -32 -10 30 25 144 19
64 35 120 35 125 0 5 -23 32 -52 59 -37 36 -49 54 -45 66 6 15 15 11 59 -29
l52 -46 23 43z m278 -270 c2 2 13 24 25 48 15 33 19 37 15 16 -3 -15 -8 -41
-12 -56 -5 -26 1 -32 66 -76 45 -30 71 -54 71 -65 0 -11 -2 -19 -5 -19 -3 0
-37 21 -76 46 -38 26 -71 45 -73 43 -2 -2 -22 -62 -45 -134 -42 -134 -68 -192
-56 -125 4 19 22 85 41 146 19 62 34 118 34 126 0 7 -12 21 -27 30 -58 35 -97
74 -90 91 5 15 16 10 67 -29 34 -25 63 -44 65 -42z m384 -164 c-6 -24 -12 -51
-15 -60 -4 -12 13 -27 66 -58 38 -22 70 -45 70 -50 0 -15 -4 -13 -79 25 l-69
34 -37 -117 c-40 -129 -84 -245 -84 -222 0 22 23 111 62 240 20 63 35 115 34
115 -1 1 -35 20 -74 44 -52 30 -73 48 -73 62 0 13 4 18 13 13 6 -4 40 -25 74
-47 56 -35 83 -41 83 -18 0 12 29 81 34 81 2 0 0 -19 -5 -42z m-16 -725 c-7
-38 -24 -104 -39 -148 -27 -83 -104 -258 -111 -252 -2 2 3 20 12 40 37 88 94
366 95 462 0 18 3 17 27 -8 27 -26 27 -27 16 -94z"/>
<path d="M27935 12129 c-198 -13 -350 -55 -518 -141 -241 -124 -417 -306 -533
-552 -92 -195 -123 -334 -131 -576 -9 -286 29 -476 137 -695 127 -255 298
-424 553 -545 208 -99 402 -136 677 -127 240 8 357 35 545 127 128 63 250 161
338 270 121 151 216 381 233 563 l7 67 -281 0 -282 0 -6 -27 c-24 -109 -40
-157 -69 -218 -70 -147 -183 -249 -325 -296 -67 -21 -92 -24 -225 -23 -136 0
-158 3 -232 27 -98 33 -213 107 -277 178 -237 264 -283 771 -104 1138 119 241
334 371 616 371 175 0 336 -64 453 -180 66 -67 123 -160 135 -226 l6 -34 285
0 285 0 -6 48 c-20 137 -96 317 -184 432 -227 299 -623 451 -1097 419z"/>
<path d="M15360 10815 l0 -1265 295 0 295 0 0 520 0 520 560 0 560 0 0 215 0
215 -560 0 -560 0 0 295 0 295 650 0 650 0 0 235 0 235 -945 0 -945 0 0 -1265z"/>
<path d="M17600 10815 l0 -1265 290 0 290 0 0 1265 0 1265 -290 0 -290 0 0
-1265z"/>
<path d="M18710 10815 l0 -1265 270 0 270 0 0 839 c0 462 3 842 8 845 4 2 257
-375 562 -839 l555 -844 298 0 297 -1 0 1265 0 1265 -275 0 -275 0 0 -852 c0
-564 -3 -849 -10 -842 -5 5 -259 388 -564 849 l-554 840 -291 3 -291 2 0
-1265z"/>
<path d="M22215 12043 c-51 -121 -995 -2481 -995 -2486 0 -4 132 -7 294 -7
l294 0 103 280 104 280 504 -3 505 -2 99 -277 100 -278 304 0 c166 0 303 3
303 8 0 4 -225 572 -498 1262 l-498 1255 -302 3 -302 2 -15 -37z m484 -1053
c88 -245 161 -451 161 -457 0 -10 -76 -13 -346 -13 -326 0 -346 1 -339 18 3 9
78 206 165 437 87 231 164 433 170 449 6 16 14 25 19 20 4 -5 81 -209 170
-454z"/>
<path d="M24070 10815 l0 -1265 275 0 275 0 0 845 c0 465 3 845 8 845 4 0 257
-381 562 -845 l555 -844 298 -1 297 0 0 1265 0 1265 -275 0 -275 0 0 -851 c0
-467 -4 -848 -8 -845 -5 3 -260 386 -566 851 l-558 845 -294 0 -294 0 0 -1265z"/>
<path d="M29650 10815 l0 -1265 1020 0 1020 0 0 230 0 230 -725 0 -725 0 2
313 3 312 648 3 647 2 0 210 0 210 -647 2 -648 3 -3 273 -2 272 710 0 710 0 0
235 0 235 -1005 0 -1005 0 0 -1265z"/>
<path d="M16230 8533 c-398 -19 -716 -187 -839 -445 -49 -103 -61 -161 -61
-291 0 -174 38 -274 145 -381 143 -143 313 -207 850 -321 398 -83 519 -129
626 -235 75 -75 93 -126 87 -264 -4 -125 -31 -187 -113 -265 -209 -197 -725
-227 -1047 -60 -175 92 -298 277 -298 451 l0 48 -171 0 -172 0 7 -79 c14 -167
75 -323 174 -446 147 -183 414 -308 732 -346 217 -25 506 2 693 65 281 94 484
289 538 516 17 71 17 249 0 320 -26 109 -68 179 -160 271 -155 153 -329 220
-864 334 -362 76 -476 115 -577 196 -67 54 -93 108 -98 204 -9 173 62 296 217
374 114 58 296 85 478 70 317 -26 503 -169 560 -431 l16 -78 165 0 165 0 -6
78 c-15 189 -113 380 -255 498 -82 68 -239 146 -347 173 -132 33 -310 50 -445
44z"/>
<path d="M18840 8528 c-641 -42 -1102 -527 -1149 -1208 -46 -656 291 -1196
855 -1373 252 -79 619 -76 873 9 422 140 708 472 805 934 83 392 2 834 -205
1130 -259 369 -663 543 -1179 508z m270 -283 c144 -12 297 -73 426 -171 180
-137 302 -360 350 -640 25 -145 15 -413 -19 -549 -94 -373 -323 -615 -655
-697 -115 -28 -347 -30 -467 -4 -434 96 -705 490 -705 1026 0 587 327 999 824
1040 89 7 110 7 246 -5z"/>
<path d="M21720 8529 c-191 -11 -338 -51 -505 -137 -320 -165 -526 -451 -617
-859 -19 -85 -22 -129 -22 -333 0 -258 12 -345 74 -532 144 -430 492 -712 950
-768 193 -23 444 -7 620 41 164 44 350 155 458 274 154 169 240 363 285 648
l4 27 -178 0 -179 0 0 -34 c0 -62 -48 -224 -91 -308 -87 -168 -266 -310 -452
-357 -209 -54 -472 -29 -652 61 -309 155 -474 458 -492 903 -9 244 27 447 112
620 140 286 380 450 696 474 367 29 665 -104 792 -354 17 -33 38 -85 48 -115
l17 -55 176 -3 176 -2 -6 27 c-24 105 -40 157 -69 219 -179 388 -601 596
-1145 563z"/>
<path d="M23430 7215 l0 -1265 175 0 175 0 0 1265 0 1265 -175 0 -175 0 0
-1265z"/>
<path d="M24390 7215 l0 -1265 930 0 930 0 0 140 0 140 -755 0 -755 0 0 440 0
440 700 0 700 0 0 140 0 140 -700 0 -700 0 0 405 0 405 750 0 750 0 0 140 0
140 -925 0 -925 0 0 -1265z"/>
<path d="M26400 8340 l0 -140 450 0 450 0 0 -1125 0 -1125 175 0 175 0 0 1125
0 1125 450 0 450 0 0 140 0 140 -1075 0 -1075 0 0 -140z"/>
<path d="M28576 8469 c3 -6 237 -344 520 -752 l514 -740 0 -514 0 -513 175 0
175 0 0 518 0 517 510 743 c281 408 510 744 510 747 0 3 -89 5 -197 4 l-198 0
-390 -600 c-214 -331 -393 -603 -396 -605 -4 -2 -188 268 -410 601 l-404 604
-208 1 c-147 0 -206 -3 -201 -11z"/>
<path d="M12005 7780 c-318 -27 -590 -146 -790 -345 -130 -128 -238 -311 -288
-485 -48 -167 -62 -432 -32 -606 44 -249 159 -468 333 -636 165 -158 355 -257
607 -313 96 -22 421 -31 556 -16 195 23 404 78 567 151 l72 33 0 608 0 609
-475 0 -475 0 0 -225 0 -225 220 0 220 0 0 -210 0 -209 -64 -20 c-35 -11 -111
-25 -168 -31 -396 -45 -692 133 -790 475 -30 107 -33 354 -4 455 58 206 191
365 378 449 88 40 166 55 288 53 179 -1 336 -58 453 -163 l51 -46 171 194 c93
107 171 198 173 202 5 13 -125 107 -208 150 -220 115 -530 173 -795 151z"/>
<path d="M6680 7485 l0 -235 325 0 325 0 0 -915 0 -915 275 0 275 0 0 915 0
915 325 0 325 0 0 235 0 235 -925 0 -925 0 0 -235z"/>
<path d="M8950 6570 l0 -1150 275 0 275 0 0 450 0 450 445 0 445 0 0 230 0
230 -445 0 -445 0 0 235 0 235 480 0 480 0 0 235 0 235 -755 0 -755 0 0 -1150z"/>
</g>
</svg>
