<?xml version="1.0" standalone="no"?>
<!DOCTYPE svg PUBLIC "-//W3C//DTD SVG 20010904//EN"
 "http://www.w3.org/TR/2001/REC-SVG-20010904/DTD/svg10.dtd">
<svg version="1.0" xmlns="http://www.w3.org/2000/svg"
 width="3240.000000pt" height="2160.000000pt" viewBox="0 0 3240.000000 2160.000000"
 preserveAspectRatio="xMidYMid meet">
<metadata>
Created by potrace 1.13, written by Peter Selinger 2001-2015
</metadata>
<g transform="translate(0.000000,2160.000000) scale(0.100000,-0.100000)"
fill="#000000" stroke="none">
<path d="M7210 10795 l-6115 -6115 410 0 410 0 5708 5708 5707 5707 -2 408 -3
407 -6115 -6115z"/>
<path d="M14190 15235 l0 -235 405 0 405 0 0 -1030 0 -1030 290 0 290 0 0
1030 0 1030 405 0 405 0 0 235 0 235 -1100 0 -1100 0 0 -235z"/>
<path d="M16700 14205 l0 -1265 1020 0 1020 0 0 230 0 230 -725 0 -725 0 2
313 3 312 648 3 647 2 0 210 0 210 -647 2 -648 3 -3 273 -2 272 710 0 710 0 0
235 0 235 -1005 0 -1005 0 0 -1265z"/>
<path d="M19140 14206 l0 -1266 295 0 295 0 2 453 3 452 430 6 c396 5 436 7
506 26 170 47 295 116 394 217 154 157 225 362 212 611 -22 399 -259 660 -675
742 -63 13 -203 16 -769 20 l-693 5 0 -1266z m1260 816 c139 -31 237 -101 282
-199 30 -66 33 -254 5 -322 -42 -102 -123 -167 -253 -202 -72 -20 -105 -22
-389 -23 l-310 -1 -3 384 -2 383 312 -5 c172 -3 333 -10 358 -15z"/>
<path d="M21650 14206 l0 -1266 295 0 295 0 2 453 3 452 430 6 c473 6 488 8
654 77 219 92 377 274 436 502 28 108 31 297 6 415 -54 265 -225 459 -489 555
-167 61 -181 62 -939 67 l-693 5 0 -1266z m1260 816 c140 -32 229 -93 277
-190 26 -53 28 -66 28 -177 0 -111 -2 -124 -28 -177 -49 -100 -141 -161 -287
-191 -33 -6 -176 -11 -355 -11 l-300 -1 -3 384 -2 383 312 -5 c172 -3 333 -10
358 -15z"/>
<path d="M24170 14205 l0 -1265 1015 0 1015 0 0 230 0 230 -725 0 -725 0 2
313 3 312 648 3 647 2 0 210 0 210 -647 2 -648 3 -3 273 -2 272 710 0 710 0 0
235 0 235 -1000 0 -1000 0 0 -1265z"/>
<path d="M26610 14206 l0 -1266 290 0 290 0 2 493 3 492 345 0 c294 -1 355 -4
410 -18 132 -35 211 -112 254 -247 28 -87 40 -169 62 -400 8 -91 24 -200 35
-242 l21 -78 293 0 292 0 -24 48 c-36 74 -61 216 -73 421 -6 102 -20 231 -31
286 -43 215 -146 350 -313 411 l-58 21 85 42 c203 101 314 268 336 509 13 153
-5 275 -59 384 -99 199 -270 328 -511 384 -66 15 -158 18 -861 21 l-788 4 0
-1265z m1422 806 c84 -28 156 -90 189 -164 20 -45 23 -70 24 -158 0 -58 -6
-124 -13 -147 -20 -67 -71 -133 -127 -164 -99 -55 -135 -59 -542 -59 l-373 0
0 361 0 361 388 -4 c366 -4 391 -5 454 -26z"/>
<path d="M9704 12236 c-3 -7 -3 -409 -1 -892 3 -840 4 -885 25 -1019 100 -647
319 -1190 671 -1663 127 -171 402 -445 573 -573 115 -86 298 -201 434 -274
l51 -27 129 72 c505 283 891 672 1177 1186 227 408 388 933 437 1423 6 61 10
445 10 942 l0 839 -1750 0 c-1477 0 -1751 -2 -1756 -14z m3281 -971 c0 -821 0
-825 -57 -1115 -160 -825 -587 -1517 -1199 -1942 -122 -85 -267 -168 -284
-162 -8 4 4 30 39 82 61 91 115 219 147 351 l23 94 22 -28 22 -28 14 29 c8 16
34 78 58 137 24 60 60 132 82 160 21 29 41 62 44 74 7 26 -38 111 -63 120 -11
4 -1 17 36 50 29 26 54 58 61 80 16 45 7 120 -19 170 -48 93 -215 261 -411
411 -47 36 -89 69 -94 73 -15 13 -7 108 12 152 18 40 22 43 82 55 74 16 148
51 207 98 l42 34 16 -57 c46 -158 123 -272 238 -354 66 -48 267 -153 275 -144
2 1 -5 20 -16 42 -11 21 -25 56 -30 78 l-11 40 73 -77 c50 -53 87 -104 119
-164 l45 -88 19 59 c27 89 24 291 -6 405 -25 97 -38 275 -23 335 9 37 10 33
12 -45 1 -47 5 -96 9 -110 7 -23 8 -23 15 12 3 20 26 79 51 130 92 196 113
347 75 558 -12 69 -22 145 -21 168 1 26 -5 54 -13 68 -17 25 -100 55 -211 75
l-64 12 20 25 c32 42 25 55 -18 33 -55 -27 -80 -31 -258 -36 -88 -3 -209 -10
-268 -16 -60 -6 -111 -9 -113 -6 -10 10 59 88 98 111 47 27 151 55 208 56 l35
1 -23 19 c-38 31 -119 51 -234 57 -60 3 -108 10 -108 15 0 6 9 21 20 35 11 15
19 27 17 29 -1 2 -65 -17 -142 -41 -76 -24 -141 -42 -144 -40 -7 8 28 75 61
117 25 33 27 38 11 38 -27 0 -113 -43 -151 -75 -18 -15 -50 -53 -71 -84 -21
-31 -48 -64 -59 -74 -20 -18 -21 -18 -39 15 -14 27 -18 58 -18 168 -1 148 -9
181 -66 275 -18 29 -56 80 -85 112 l-53 58 -1 -56 c0 -31 -4 -80 -10 -108 -7
-39 -7 -59 2 -74 7 -13 14 -84 18 -167 6 -163 20 -207 80 -247 43 -30 11 -32
-36 -3 -58 36 -78 95 -85 250 -6 149 -21 200 -79 285 -34 49 -158 185 -169
185 -3 0 -4 -39 -3 -87 5 -118 -12 -220 -55 -325 -23 -57 -35 -106 -36 -141
l-2 -53 -42 45 -43 46 14 -35 c8 -19 21 -77 29 -129 l15 -94 -35 41 c-46 56
-71 57 -43 2 54 -106 62 -246 20 -371 -47 -139 -58 -157 -109 -175 -78 -29
-82 -36 -88 -165 l-5 -114 -121 -182 c-67 -101 -124 -183 -128 -183 -3 0 -16
51 -28 113 -49 254 -51 284 -51 1105 l0 772 1528 -2 1527 -3 0 -760z m-2380
-1263 c1 2 10 17 18 33 l16 30 -6 -48 c-6 -48 -5 -49 45 -100 39 -39 49 -56
42 -67 -8 -12 -18 -6 -59 34 l-49 49 -12 -44 c-19 -72 -61 -193 -70 -202 -11
-13 7 75 35 169 14 45 25 87 25 94 0 6 -18 33 -41 60 -54 64 -43 91 14 31 21
-23 40 -41 42 -39z m272 -200 c13 24 22 34 19 23 -20 -90 -21 -88 44 -135 41
-31 59 -52 60 -67 0 -13 -3 -23 -6 -23 -3 0 -30 20 -61 45 -30 25 -58 45 -62
45 -4 0 -24 -53 -44 -117 -21 -65 -42 -125 -47 -133 -20 -32 -10 30 25 144 19
64 35 120 35 125 0 5 -23 32 -52 59 -37 36 -49 54 -45 66 6 15 15 11 59 -29
l52 -46 23 43z m278 -270 c2 2 13 24 25 48 15 33 19 37 15 16 -3 -15 -8 -41
-12 -56 -5 -26 1 -32 66 -76 45 -30 71 -54 71 -65 0 -11 -2 -19 -5 -19 -3 0
-37 21 -76 46 -38 26 -71 45 -73 43 -2 -2 -22 -62 -45 -134 -42 -134 -68 -192
-56 -125 4 19 22 85 41 146 19 62 34 118 34 126 0 7 -12 21 -27 30 -58 35 -97
74 -90 91 5 15 16 10 67 -29 34 -25 63 -44 65 -42z m384 -164 c-6 -24 -12 -51
-15 -60 -4 -12 13 -27 66 -58 38 -22 70 -45 70 -50 0 -15 -4 -13 -79 25 l-69
34 -37 -117 c-40 -129 -84 -245 -84 -222 0 22 23 111 62 240 20 63 35 115 34
115 -1 1 -35 20 -74 44 -52 30 -73 48 -73 62 0 13 4 18 13 13 6 -4 40 -25 74
-47 56 -35 83 -41 83 -18 0 12 29 81 34 81 2 0 0 -19 -5 -42z m-16 -725 c-7
-38 -24 -104 -39 -148 -27 -83 -104 -258 -111 -252 -2 2 3 20 12 40 37 88 94
366 95 462 0 18 3 17 27 -8 27 -26 27 -27 16 -94z"/>
<path d="M26975 11919 c-198 -13 -350 -55 -518 -141 -241 -124 -417 -306 -533
-552 -92 -195 -123 -334 -131 -576 -9 -286 29 -476 137 -695 127 -255 298
-424 553 -545 208 -99 402 -136 677 -127 240 8 357 35 545 127 128 63 250 161
338 270 121 151 216 381 233 563 l7 67 -281 0 -282 0 -6 -27 c-24 -109 -40
-157 -69 -218 -70 -147 -183 -249 -325 -296 -67 -21 -92 -24 -225 -23 -136 0
-158 3 -232 27 -98 33 -213 107 -277 178 -237 264 -283 771 -104 1138 119 241
334 371 616 371 175 0 336 -64 453 -180 66 -67 123 -160 135 -226 l6 -34 285
0 285 0 -6 48 c-20 137 -96 317 -184 432 -227 299 -623 451 -1097 419z"/>
<path d="M14400 10605 l0 -1265 295 0 295 0 0 520 0 520 560 0 560 0 0 215 0
215 -560 0 -560 0 0 295 0 295 650 0 650 0 0 235 0 235 -945 0 -945 0 0 -1265z"/>
<path d="M16640 10605 l0 -1265 290 0 290 0 0 1265 0 1265 -290 0 -290 0 0
-1265z"/>
<path d="M17750 10605 l0 -1265 270 0 270 0 0 839 c0 462 3 842 8 845 4 2 257
-375 562 -839 l555 -844 298 0 297 -1 0 1265 0 1265 -275 0 -275 0 0 -852 c0
-564 -3 -849 -10 -842 -5 5 -259 388 -564 849 l-554 840 -291 3 -291 2 0
-1265z"/>
<path d="M21255 11833 c-51 -121 -995 -2481 -995 -2486 0 -4 132 -7 294 -7
l294 0 103 280 104 280 504 -3 505 -2 99 -277 100 -278 304 0 c166 0 303 3
303 8 0 4 -225 572 -498 1262 l-498 1255 -302 3 -302 2 -15 -37z m484 -1053
c88 -245 161 -451 161 -457 0 -10 -76 -13 -346 -13 -326 0 -346 1 -339 18 3 9
78 206 165 437 87 231 164 433 170 449 6 16 14 25 19 20 4 -5 81 -209 170
-454z"/>
<path d="M23110 10605 l0 -1265 275 0 275 0 0 845 c0 465 3 845 8 845 4 0 257
-381 562 -845 l555 -844 298 -1 297 0 0 1265 0 1265 -275 0 -275 0 0 -851 c0
-467 -4 -848 -8 -845 -5 3 -260 386 -566 851 l-558 845 -294 0 -294 0 0 -1265z"/>
<path d="M28690 10605 l0 -1265 1020 0 1020 0 0 230 0 230 -725 0 -725 0 2
313 3 312 648 3 647 2 0 210 0 210 -647 2 -648 3 -3 273 -2 272 710 0 710 0 0
235 0 235 -1005 0 -1005 0 0 -1265z"/>
<path d="M15460 8320 c-315 -21 -593 -147 -794 -361 -177 -188 -286 -421 -338
-724 -17 -102 -19 -149 -15 -315 4 -177 7 -206 35 -313 54 -208 159 -400 302
-550 165 -174 385 -296 635 -352 114 -26 382 -31 506 -10 254 42 453 138 594
286 31 32 58 59 60 59 2 0 13 -33 25 -72 12 -40 33 -110 46 -155 l25 -83 110
0 109 0 0 670 0 670 -585 0 -585 0 0 -140 0 -140 428 -2 427 -3 -2 -85 c-8
-335 -238 -619 -573 -709 -518 -139 -984 102 -1149 594 -50 150 -64 257 -58
435 17 453 193 776 512 934 108 54 188 76 315 85 294 22 555 -55 713 -212 80
-79 134 -171 163 -275 l17 -62 174 0 c200 0 185 -11 152 116 -55 211 -188 398
-372 523 -210 143 -534 213 -877 191z"/>
<path d="M20870 8319 c-298 -21 -576 -145 -775 -344 -181 -182 -299 -419 -352
-710 -12 -62 -17 -145 -17 -265 0 -120 5 -203 17 -265 53 -288 171 -529 347
-705 233 -235 534 -350 912 -350 256 0 423 35 613 130 143 71 224 130 328 240
231 240 347 560 347 950 0 409 -131 745 -385 989 -263 252 -601 360 -1035 330z
m344 -295 c386 -74 651 -388 715 -848 15 -107 14 -263 -4 -376 -66 -437 -309
-730 -682 -822 -111 -27 -338 -30 -449 -5 -264 59 -473 224 -597 472 -156 312
-160 759 -11 1083 94 206 261 371 452 448 168 68 380 85 576 48z"/>
<path d="M17300 7005 l0 -1265 175 0 175 0 0 540 0 540 463 0 c504 0 553 -5
648 -56 95 -52 155 -143 189 -287 28 -122 50 -284 50 -378 0 -127 18 -266 39
-315 l20 -44 200 0 201 0 -30 46 c-62 98 -96 246 -110 482 -17 280 -45 403
-115 507 -50 74 -125 128 -223 159 -79 25 -80 26 -17 46 149 47 260 142 330
282 55 113 75 200 75 339 0 194 -53 332 -173 451 -79 79 -204 146 -332 178
-127 33 -289 39 -947 40 l-618 0 0 -1265z m1413 962 c201 -58 307 -205 307
-426 0 -210 -117 -352 -345 -417 -52 -16 -123 -18 -542 -22 l-483 -3 0 439 c0
241 3 442 8 446 4 4 230 6 502 3 421 -3 504 -6 553 -20z"/>
<path d="M22723 7353 c3 -1012 1 -970 68 -1143 113 -294 394 -475 807 -520
139 -16 434 -7 541 14 229 47 402 140 531 283 64 72 143 230 170 339 35 142
40 286 40 1127 l0 817 -180 0 -180 0 0 -870 c0 -755 -2 -881 -16 -947 -52
-255 -195 -406 -449 -474 -66 -18 -108 -22 -240 -22 -140 0 -172 4 -257 26
-249 66 -401 212 -465 447 -15 59 -17 146 -20 953 l-4 887 -175 0 -175 0 4
-917z"/>
<path d="M25450 7005 l0 -1265 180 0 180 0 0 515 0 515 468 0 c516 0 597 7
739 58 237 87 383 270 424 532 15 94 6 314 -15 395 -49 183 -170 336 -327 414
-186 91 -283 100 -1071 101 l-578 0 0 -1265z m1146 975 c318 -25 479 -158 501
-414 16 -200 -69 -372 -221 -446 -128 -62 -139 -63 -623 -68 l-443 -3 0 470 0
471 333 0 c182 0 386 -5 453 -10z"/>
<path d="M11045 7570 c-318 -27 -590 -146 -790 -345 -130 -128 -238 -311 -288
-485 -48 -167 -62 -432 -32 -606 44 -249 159 -468 333 -636 165 -158 355 -257
607 -313 96 -22 421 -31 556 -16 195 23 404 78 567 151 l72 33 0 608 0 609
-475 0 -475 0 0 -225 0 -225 220 0 220 0 0 -210 0 -209 -64 -20 c-35 -11 -111
-25 -168 -31 -396 -45 -692 133 -790 475 -30 107 -33 354 -4 455 58 206 191
365 378 449 88 40 166 55 288 53 179 -1 336 -58 453 -163 l51 -46 171 194 c93
107 171 198 173 202 5 13 -125 107 -208 150 -220 115 -530 173 -795 151z"/>
<path d="M5720 7275 l0 -235 325 0 325 0 0 -915 0 -915 275 0 275 0 0 915 0
915 325 0 325 0 0 235 0 235 -925 0 -925 0 0 -235z"/>
<path d="M7990 6360 l0 -1150 275 0 275 0 0 450 0 450 445 0 445 0 0 230 0
230 -445 0 -445 0 0 235 0 235 480 0 480 0 0 235 0 235 -755 0 -755 0 0 -1150z"/>
</g>
</svg>
