<?xml version="1.0" standalone="no"?>
<!DOCTYPE svg PUBLIC "-//W3C//DTD SVG 20010904//EN"
 "http://www.w3.org/TR/2001/REC-SVG-20010904/DTD/svg10.dtd">
<svg version="1.0" xmlns="http://www.w3.org/2000/svg"
 width="4680.000000pt" height="2160.000000pt" viewBox="0 0 4680.000000 2160.000000"
 preserveAspectRatio="xMidYMid meet">
<metadata>
Created by potrace 1.13, written by Peter Selinger 2001-2015
</metadata>
<g transform="translate(0.000000,2160.000000) scale(0.100000,-0.100000)"
fill="#000000" stroke="none">
<path d="M16170 15729 c-509 -36 -860 -318 -885 -710 -14 -204 37 -341 175
-479 142 -142 293 -208 710 -310 420 -102 535 -143 625 -222 57 -50 84 -106
85 -172 0 -71 -18 -121 -63 -172 -73 -83 -180 -126 -358 -145 -231 -24 -446
32 -570 148 -61 57 -108 149 -122 242 l-11 71 -283 0 -283 0 0 -28 c0 -66 23
-202 45 -265 90 -260 324 -456 647 -542 196 -52 469 -69 695 -44 319 35 595
170 733 357 167 226 187 572 46 785 -62 93 -179 195 -292 254 -129 67 -143 71
-526 164 -591 142 -669 180 -685 332 -9 83 16 145 83 206 89 82 230 120 394
107 274 -22 414 -121 452 -319 l13 -67 284 0 284 0 -6 80 c-22 276 -173 487
-443 615 -187 89 -478 133 -744 114z"/>
<path d="M25910 15733 c-434 -24 -765 -213 -888 -508 -50 -121 -56 -352 -12
-470 78 -208 252 -347 556 -445 54 -17 227 -63 383 -102 358 -88 445 -119 539
-195 58 -48 85 -103 86 -178 0 -81 -17 -126 -69 -179 -93 -96 -229 -138 -445
-138 -163 -1 -255 18 -366 72 -127 62 -221 194 -231 324 l-6 66 -283 0 -284 0
0 -59 c0 -137 43 -277 122 -397 136 -210 356 -341 678 -406 101 -20 144 -23
350 -23 303 1 448 27 647 116 223 100 389 291 438 504 22 91 21 279 0 360 -47
181 -184 333 -390 435 -112 55 -184 77 -500 151 -446 104 -575 149 -640 220
-39 43 -49 84 -43 168 8 106 89 191 223 233 96 31 292 30 409 -1 171 -46 256
-130 292 -291 l16 -70 282 0 282 0 -3 63 c-22 371 -277 629 -709 716 -125 25
-320 41 -434 34z"/>
<path d="M29265 15683 c-230 -49 -410 -193 -485 -388 -33 -85 -34 -250 -2
-351 22 -73 88 -183 175 -292 27 -35 48 -64 46 -66 -2 -1 -40 -22 -84 -46
-237 -128 -377 -261 -454 -432 -39 -85 -51 -151 -51 -266 0 -127 20 -219 69
-317 116 -232 325 -372 620 -415 118 -18 352 -8 460 19 139 35 289 113 415
215 56 47 59 47 75 30 10 -11 59 -67 111 -126 l92 -108 326 0 325 0 -19 22
c-10 12 -133 147 -271 300 l-253 278 46 63 c92 124 178 337 202 500 l9 57
-231 -2 -230 -3 -11 -55 c-21 -102 -71 -233 -87 -228 -5 2 -85 91 -178 198
l-167 195 79 47 c239 142 365 305 390 504 51 405 -247 686 -727 683 -66 0
-151 -7 -190 -16z m321 -341 c88 -46 136 -125 135 -226 0 -72 -20 -132 -57
-182 -29 -38 -191 -164 -211 -164 -15 0 -158 173 -184 223 -81 155 -19 316
141 368 40 13 133 3 176 -19z m-64 -1349 l227 -261 -53 -51 c-30 -27 -82 -68
-117 -91 -233 -150 -540 -84 -642 139 -32 69 -30 179 6 249 35 70 77 120 138
167 58 44 189 116 204 111 5 -1 112 -120 237 -263z"/>
<path d="M18527 15648 c-47 -112 -997 -2487 -997 -2492 0 -3 132 -6 294 -6
l294 0 104 280 103 280 504 -3 505 -2 99 -277 100 -278 304 0 c166 0 303 3
303 8 0 4 -224 572 -498 1262 l-498 1255 -302 3 -302 2 -13 -32z m482 -1058
c88 -245 161 -451 161 -457 0 -10 -76 -13 -346 -13 -326 0 -346 1 -339 18 4 9
78 206 165 437 87 231 163 433 170 449 6 17 14 25 19 20 5 -5 81 -209 170
-454z"/>
<path d="M20390 14415 l0 -1265 945 0 945 0 0 230 0 230 -655 0 -655 0 0 1035
0 1035 -290 0 -290 0 0 -1265z"/>
<path d="M22620 14415 l0 -1265 1015 0 1015 0 0 230 0 230 -722 2 -723 3 0
310 0 310 653 3 652 2 0 210 0 210 -652 2 -653 3 -3 273 -2 272 710 0 710 0 0
235 0 235 -1000 0 -1000 0 0 -1265z"/>
<path d="M10664 12446 c-3 -7 -3 -409 -1 -892 3 -840 4 -885 25 -1019 100
-647 319 -1190 671 -1663 127 -171 402 -445 573 -573 115 -86 298 -201 434
-274 l51 -27 129 72 c505 283 891 672 1177 1186 227 408 388 933 437 1423 6
61 10 445 10 942 l0 839 -1750 0 c-1477 0 -1751 -2 -1756 -14z m3281 -971 c0
-821 0 -825 -57 -1115 -160 -825 -587 -1517 -1199 -1942 -122 -85 -267 -168
-284 -162 -8 4 4 30 39 82 61 91 115 219 147 351 l23 94 22 -28 22 -28 14 29
c8 16 34 78 58 137 24 60 60 132 82 160 21 29 41 62 44 74 7 26 -38 111 -63
120 -11 4 -1 17 36 50 29 26 54 58 61 80 16 45 7 120 -19 170 -48 93 -215 261
-411 411 -47 36 -89 69 -94 73 -15 13 -7 108 12 152 18 40 22 43 82 55 74 16
148 51 207 98 l42 34 16 -57 c46 -158 123 -272 238 -354 66 -48 267 -153 275
-144 2 1 -5 20 -16 42 -11 21 -25 56 -30 78 l-11 40 73 -77 c50 -53 87 -104
119 -164 l45 -88 19 59 c27 89 24 291 -6 405 -25 97 -38 275 -23 335 9 37 10
33 12 -45 1 -47 5 -96 9 -110 7 -23 8 -23 15 12 3 20 26 79 51 130 92 196 113
347 75 558 -12 69 -22 145 -21 168 1 26 -5 54 -13 68 -17 25 -100 55 -211 75
l-64 12 20 25 c32 42 25 55 -18 33 -55 -27 -80 -31 -258 -36 -88 -3 -209 -10
-268 -16 -60 -6 -111 -9 -113 -6 -10 10 59 88 98 111 47 27 151 55 208 56 l35
1 -23 19 c-38 31 -119 51 -234 57 -60 3 -108 10 -108 15 0 6 9 21 20 35 11 15
19 27 17 29 -1 2 -65 -17 -142 -41 -76 -24 -141 -42 -144 -40 -7 8 28 75 61
117 25 33 27 38 11 38 -27 0 -113 -43 -151 -75 -18 -15 -50 -53 -71 -84 -21
-31 -48 -64 -59 -74 -20 -18 -21 -18 -39 15 -14 27 -18 58 -18 168 -1 148 -9
181 -66 275 -18 29 -56 80 -85 112 l-53 58 -1 -56 c0 -31 -4 -80 -10 -108 -7
-39 -7 -59 2 -74 7 -13 14 -84 18 -167 6 -163 20 -207 80 -247 43 -30 11 -32
-36 -3 -58 36 -78 95 -85 250 -6 149 -21 200 -79 285 -34 49 -158 185 -169
185 -3 0 -4 -39 -3 -87 5 -118 -12 -220 -55 -325 -23 -57 -35 -106 -36 -141
l-2 -53 -42 45 -43 46 14 -35 c8 -19 21 -77 29 -129 l15 -94 -35 41 c-46 56
-71 57 -43 2 54 -106 62 -246 20 -371 -47 -139 -58 -157 -109 -175 -78 -29
-82 -36 -88 -165 l-5 -114 -121 -182 c-67 -101 -124 -183 -128 -183 -3 0 -16
51 -28 113 -49 254 -51 284 -51 1105 l0 772 1528 -2 1527 -3 0 -760z m-2380
-1263 c1 2 10 17 18 33 l16 30 -6 -48 c-6 -48 -5 -49 45 -100 39 -39 49 -56
42 -67 -8 -12 -18 -6 -59 34 l-49 49 -12 -44 c-19 -72 -61 -193 -70 -202 -11
-13 7 75 35 169 14 45 25 87 25 94 0 6 -18 33 -41 60 -54 64 -43 91 14 31 21
-23 40 -41 42 -39z m272 -200 c13 24 22 34 19 23 -20 -90 -21 -88 44 -135 41
-31 59 -52 60 -67 0 -13 -3 -23 -6 -23 -3 0 -30 20 -61 45 -30 25 -58 45 -62
45 -4 0 -24 -53 -44 -117 -21 -65 -42 -125 -47 -133 -20 -32 -10 30 25 144 19
64 35 120 35 125 0 5 -23 32 -52 59 -37 36 -49 54 -45 66 6 15 15 11 59 -29
l52 -46 23 43z m278 -270 c2 2 13 24 25 48 15 33 19 37 15 16 -3 -15 -8 -41
-12 -56 -5 -26 1 -32 66 -76 45 -30 71 -54 71 -65 0 -11 -2 -19 -5 -19 -3 0
-37 21 -76 46 -38 26 -71 45 -73 43 -2 -2 -22 -62 -45 -134 -42 -134 -68 -192
-56 -125 4 19 22 85 41 146 19 62 34 118 34 126 0 7 -12 21 -27 30 -58 35 -97
74 -90 91 5 15 16 10 67 -29 34 -25 63 -44 65 -42z m384 -164 c-6 -24 -12 -51
-15 -60 -4 -12 13 -27 66 -58 38 -22 70 -45 70 -50 0 -15 -4 -13 -79 25 l-69
34 -37 -117 c-40 -129 -84 -245 -84 -222 0 22 23 111 62 240 20 63 35 115 34
115 -1 1 -35 20 -74 44 -52 30 -73 48 -73 62 0 13 4 18 13 13 6 -4 40 -25 74
-47 56 -35 83 -41 83 -18 0 12 29 81 34 81 2 0 0 -19 -5 -42z m-16 -725 c-7
-38 -24 -104 -39 -148 -27 -83 -104 -258 -111 -252 -2 2 3 20 12 40 37 88 94
366 95 462 0 18 3 17 27 -8 27 -26 27 -27 16 -94z"/>
<path d="M30725 12130 c-544 -40 -952 -349 -1119 -850 -59 -180 -85 -408 -67
-610 49 -552 353 -952 846 -1113 156 -51 234 -62 445 -61 169 0 205 3 272 22
180 50 274 102 400 221 49 46 90 82 92 80 1 -2 16 -66 31 -141 l28 -138 189 0
188 0 0 685 0 685 -565 0 -565 0 0 -205 0 -205 295 0 295 0 0 -27 c0 -16 -7
-57 -15 -92 -65 -276 -287 -431 -615 -431 -218 0 -371 59 -506 194 -66 66 -90
98 -128 176 -142 290 -142 689 2 980 88 181 258 316 447 355 162 34 359 11
485 -56 106 -56 208 -184 249 -311 l13 -38 280 0 280 0 -7 48 c-26 181 -108
349 -238 489 -230 246 -603 372 -1012 343z"/>
<path d="M15150 11845 l0 -235 405 0 405 0 0 -1030 0 -1030 290 0 290 0 0
1030 0 1030 405 0 405 0 0 235 0 235 -1100 0 -1100 0 0 -235z"/>
<path d="M17660 10816 l0 -1266 295 0 295 0 2 493 3 492 265 3 c434 5 558 -15
646 -103 96 -96 125 -203 159 -576 8 -92 17 -173 19 -180 3 -8 12 -40 21 -71
l16 -58 293 0 293 0 -28 58 c-39 79 -57 180 -69 383 -18 306 -50 445 -129 559
-49 71 -133 136 -212 165 l-63 22 94 49 c223 115 329 303 330 585 0 294 -151
521 -426 638 -152 65 -139 64 -1011 68 l-793 4 0 -1265z m1344 824 c144 -21
245 -94 283 -203 26 -76 23 -233 -6 -308 -28 -72 -96 -137 -177 -170 -58 -23
-65 -24 -456 -27 l-398 -3 0 360 0 361 343 0 c188 0 373 -5 411 -10z"/>
<path d="M20621 10848 c-272 -678 -501 -1248 -508 -1266 l-13 -32 297 2 297 3
104 278 105 277 502 0 502 0 100 -277 100 -278 306 -3 307 -2 -21 52 c-11 29
-237 599 -501 1266 l-481 1212 -301 0 -301 0 -494 -1232z m962 143 c92 -252
167 -461 167 -465 0 -3 -155 -6 -345 -6 -190 0 -345 3 -345 7 0 15 344 923
350 923 3 0 81 -206 173 -459z"/>
<path d="M22960 10816 l0 -1267 703 4 c629 3 710 5 777 21 406 96 690 347 815
721 102 302 106 734 9 1023 -113 339 -348 575 -684 686 -204 67 -222 69 -957
73 l-663 5 0 -1266z m1285 765 c300 -82 451 -275 495 -631 22 -186 8 -368 -39
-508 -71 -207 -201 -336 -406 -403 -66 -22 -88 -23 -407 -27 l-338 -3 0 801 0
802 308 -4 c277 -4 315 -7 387 -27z"/>
<path d="M25750 10815 l0 -1265 295 0 295 0 0 1265 0 1265 -295 0 -295 0 0
-1265z"/>
<path d="M26860 10815 l0 -1265 275 0 275 0 0 847 c0 716 2 845 14 833 7 -8
260 -390 561 -847 l548 -833 298 0 299 0 0 1265 0 1265 -275 0 -275 0 0 -850
c0 -467 -3 -850 -7 -850 -5 0 -260 383 -568 850 l-560 850 -292 0 -293 0 0
-1265z"/>
<path d="M12005 7780 c-318 -27 -590 -146 -790 -345 -130 -128 -238 -311 -288
-485 -48 -167 -62 -432 -32 -606 44 -249 159 -468 333 -636 165 -158 355 -257
607 -313 96 -22 421 -31 556 -16 195 23 404 78 567 151 l72 33 0 608 0 609
-475 0 -475 0 0 -225 0 -225 220 0 220 0 0 -210 0 -209 -64 -20 c-35 -11 -111
-25 -168 -31 -396 -45 -692 133 -790 475 -30 107 -33 354 -4 455 58 206 191
365 378 449 88 40 166 55 288 53 179 -1 336 -58 453 -163 l51 -46 171 194 c93
107 171 198 173 202 5 13 -125 107 -208 150 -220 115 -530 173 -795 151z"/>
<path d="M6680 7485 l0 -235 325 0 325 0 0 -915 0 -915 275 0 275 0 0 915 0
915 325 0 325 0 0 235 0 235 -925 0 -925 0 0 -235z"/>
<path d="M8950 6570 l0 -1150 275 0 275 0 0 450 0 450 445 0 445 0 0 230 0
230 -445 0 -445 0 0 235 0 235 480 0 480 0 0 235 0 235 -755 0 -755 0 0 -1150z"/>
</g>
</svg>
