<?xml version="1.0" standalone="no"?>
<!DOCTYPE svg PUBLIC "-//W3C//DTD SVG 20010904//EN"
 "http://www.w3.org/TR/2001/REC-SVG-20010904/DTD/svg10.dtd">
<svg version="1.0" xmlns="http://www.w3.org/2000/svg"
 width="3240.000000pt" height="2160.000000pt" viewBox="0 0 3240.000000 2160.000000"
 preserveAspectRatio="xMidYMid meet">
<metadata>
Created by potrace 1.13, written by Peter Selinger 2001-2015
</metadata>
<g transform="translate(0.000000,2160.000000) scale(0.100000,-0.100000)"
fill="#000000" stroke="none">
<path d="M7210 10795 l-6115 -6115 410 0 410 0 5708 5708 5707 5707 -2 408 -3
407 -6115 -6115z"/>
<path d="M14190 15235 l0 -235 405 0 405 0 0 -1030 0 -1030 290 0 290 0 0
1030 0 1030 405 0 405 0 0 235 0 235 -1100 0 -1100 0 0 -235z"/>
<path d="M17081 15448 c-5 -13 -232 -580 -505 -1260 -273 -680 -496 -1239
-496 -1242 0 -3 132 -6 294 -6 l293 0 105 278 104 277 504 0 505 0 99 -277
100 -278 303 0 c167 0 303 3 303 8 0 4 -224 572 -498 1262 l-498 1255 -302 3
-302 2 -9 -22z m481 -1076 l166 -457 -174 -3 c-96 -1 -252 -1 -348 0 l-175 3
170 450 c93 248 171 456 174 464 3 8 9 11 13 7 4 -4 82 -213 174 -464z"/>
<path d="M18940 14206 l0 -1266 290 0 290 0 2 493 3 492 275 3 c422 4 544 -15
636 -100 84 -77 123 -199 148 -459 22 -219 33 -303 53 -371 l16 -58 293 0 293
0 -25 48 c-36 70 -61 213 -74 417 -17 292 -43 405 -119 521 -58 91 -122 143
-222 179 l-61 22 88 44 c167 82 277 221 320 404 22 95 22 279 0 365 -32 121
-82 207 -176 301 -70 70 -101 93 -180 132 -52 25 -133 56 -180 68 -83 22 -101
22 -877 26 l-793 4 0 -1265z m1422 806 c84 -28 156 -91 189 -164 20 -46 24
-69 24 -168 0 -111 -1 -118 -34 -184 -37 -76 -84 -117 -174 -151 -48 -18 -83
-20 -449 -23 l-398 -3 0 361 0 361 388 -3 c367 -4 390 -5 454 -26z"/>
<path d="M21380 15235 l0 -235 400 0 400 0 0 -1030 0 -1030 295 0 295 0 0
1030 0 1030 400 0 400 0 0 235 0 235 -1095 0 -1095 0 0 -235z"/>
<path d="M23780 14238 c-272 -678 -500 -1248 -507 -1266 l-13 -32 297 2 297 3
78 210 c43 116 90 240 104 278 l26 67 502 0 503 0 99 -277 100 -278 307 -3
307 -2 -13 32 c-8 18 -234 588 -502 1266 l-489 1232 -301 0 -301 0 -494 -1232z
m959 150 c91 -249 167 -459 169 -465 3 -10 -70 -13 -343 -13 -336 0 -347 1
-342 19 11 44 341 911 346 911 4 0 80 -204 170 -452z"/>
<path d="M26120 14205 l0 -1265 275 0 275 0 2 847 3 847 558 -847 559 -847
294 0 294 0 0 1265 0 1265 -270 0 -270 0 0 -850 c0 -467 -4 -850 -8 -850 -4 0
-260 382 -567 850 l-560 849 -292 1 -293 0 0 -1265z"/>
<path d="M9704 12236 c-3 -7 -3 -409 -1 -892 3 -840 4 -885 25 -1019 100 -647
319 -1190 671 -1663 127 -171 402 -445 573 -573 115 -86 298 -201 434 -274
l51 -27 129 72 c505 283 891 672 1177 1186 227 408 388 933 437 1423 6 61 10
445 10 942 l0 839 -1750 0 c-1477 0 -1751 -2 -1756 -14z m3281 -971 c0 -821 0
-825 -57 -1115 -160 -825 -587 -1517 -1199 -1942 -122 -85 -267 -168 -284
-162 -8 4 4 30 39 82 61 91 115 219 147 351 l23 94 22 -28 22 -28 14 29 c8 16
34 78 58 137 24 60 60 132 82 160 21 29 41 62 44 74 7 26 -38 111 -63 120 -11
4 -1 17 36 50 29 26 54 58 61 80 16 45 7 120 -19 170 -48 93 -215 261 -411
411 -47 36 -89 69 -94 73 -15 13 -7 108 12 152 18 40 22 43 82 55 74 16 148
51 207 98 l42 34 16 -57 c46 -158 123 -272 238 -354 66 -48 267 -153 275 -144
2 1 -5 20 -16 42 -11 21 -25 56 -30 78 l-11 40 73 -77 c50 -53 87 -104 119
-164 l45 -88 19 59 c27 89 24 291 -6 405 -25 97 -38 275 -23 335 9 37 10 33
12 -45 1 -47 5 -96 9 -110 7 -23 8 -23 15 12 3 20 26 79 51 130 92 196 113
347 75 558 -12 69 -22 145 -21 168 1 26 -5 54 -13 68 -17 25 -100 55 -211 75
l-64 12 20 25 c32 42 25 55 -18 33 -55 -27 -80 -31 -258 -36 -88 -3 -209 -10
-268 -16 -60 -6 -111 -9 -113 -6 -10 10 59 88 98 111 47 27 151 55 208 56 l35
1 -23 19 c-38 31 -119 51 -234 57 -60 3 -108 10 -108 15 0 6 9 21 20 35 11 15
19 27 17 29 -1 2 -65 -17 -142 -41 -76 -24 -141 -42 -144 -40 -7 8 28 75 61
117 25 33 27 38 11 38 -27 0 -113 -43 -151 -75 -18 -15 -50 -53 -71 -84 -21
-31 -48 -64 -59 -74 -20 -18 -21 -18 -39 15 -14 27 -18 58 -18 168 -1 148 -9
181 -66 275 -18 29 -56 80 -85 112 l-53 58 -1 -56 c0 -31 -4 -80 -10 -108 -7
-39 -7 -59 2 -74 7 -13 14 -84 18 -167 6 -163 20 -207 80 -247 43 -30 11 -32
-36 -3 -58 36 -78 95 -85 250 -6 149 -21 200 -79 285 -34 49 -158 185 -169
185 -3 0 -4 -39 -3 -87 5 -118 -12 -220 -55 -325 -23 -57 -35 -106 -36 -141
l-2 -53 -42 45 -43 46 14 -35 c8 -19 21 -77 29 -129 l15 -94 -35 41 c-46 56
-71 57 -43 2 54 -106 62 -246 20 -371 -47 -139 -58 -157 -109 -175 -78 -29
-82 -36 -88 -165 l-5 -114 -121 -182 c-67 -101 -124 -183 -128 -183 -3 0 -16
51 -28 113 -49 254 -51 284 -51 1105 l0 772 1528 -2 1527 -3 0 -760z m-2380
-1263 c1 2 10 17 18 33 l16 30 -6 -48 c-6 -48 -5 -49 45 -100 39 -39 49 -56
42 -67 -8 -12 -18 -6 -59 34 l-49 49 -12 -44 c-19 -72 -61 -193 -70 -202 -11
-13 7 75 35 169 14 45 25 87 25 94 0 6 -18 33 -41 60 -54 64 -43 91 14 31 21
-23 40 -41 42 -39z m272 -200 c13 24 22 34 19 23 -20 -90 -21 -88 44 -135 41
-31 59 -52 60 -67 0 -13 -3 -23 -6 -23 -3 0 -30 20 -61 45 -30 25 -58 45 -62
45 -4 0 -24 -53 -44 -117 -21 -65 -42 -125 -47 -133 -20 -32 -10 30 25 144 19
64 35 120 35 125 0 5 -23 32 -52 59 -37 36 -49 54 -45 66 6 15 15 11 59 -29
l52 -46 23 43z m278 -270 c2 2 13 24 25 48 15 33 19 37 15 16 -3 -15 -8 -41
-12 -56 -5 -26 1 -32 66 -76 45 -30 71 -54 71 -65 0 -11 -2 -19 -5 -19 -3 0
-37 21 -76 46 -38 26 -71 45 -73 43 -2 -2 -22 -62 -45 -134 -42 -134 -68 -192
-56 -125 4 19 22 85 41 146 19 62 34 118 34 126 0 7 -12 21 -27 30 -58 35 -97
74 -90 91 5 15 16 10 67 -29 34 -25 63 -44 65 -42z m384 -164 c-6 -24 -12 -51
-15 -60 -4 -12 13 -27 66 -58 38 -22 70 -45 70 -50 0 -15 -4 -13 -79 25 l-69
34 -37 -117 c-40 -129 -84 -245 -84 -222 0 22 23 111 62 240 20 63 35 115 34
115 -1 1 -35 20 -74 44 -52 30 -73 48 -73 62 0 13 4 18 13 13 6 -4 40 -25 74
-47 56 -35 83 -41 83 -18 0 12 29 81 34 81 2 0 0 -19 -5 -42z m-16 -725 c-7
-38 -24 -104 -39 -148 -27 -83 -104 -258 -111 -252 -2 2 3 20 12 40 37 88 94
366 95 462 0 18 3 17 27 -8 27 -26 27 -27 16 -94z"/>
<path d="M15210 11919 c-509 -36 -860 -318 -885 -710 -14 -204 37 -341 175
-479 142 -142 293 -208 710 -310 420 -102 535 -143 625 -222 57 -50 84 -106
85 -172 0 -71 -18 -121 -63 -172 -73 -83 -180 -126 -358 -145 -231 -24 -446
32 -570 148 -61 57 -108 149 -122 242 l-11 71 -283 0 -283 0 0 -28 c0 -66 23
-202 45 -265 90 -260 324 -456 647 -542 196 -52 469 -69 695 -44 319 35 595
170 733 357 167 226 187 572 46 785 -62 93 -179 195 -292 254 -129 67 -143 71
-526 164 -591 142 -669 180 -685 332 -9 83 16 145 83 206 89 82 230 120 394
107 274 -22 414 -121 452 -319 l13 -67 284 0 284 0 -6 80 c-22 276 -173 487
-443 615 -187 89 -478 133 -744 114z"/>
<path d="M16640 11635 l0 -235 400 0 400 0 0 -1030 0 -1030 295 0 295 0 0
1030 0 1030 400 0 400 0 0 235 0 235 -1095 0 -1095 0 0 -235z"/>
<path d="M19142 10963 l3 -908 27 -95 c98 -358 327 -561 733 -648 110 -24 140
-26 365 -27 197 0 263 4 335 18 446 89 694 305 788 687 20 82 21 111 24 983
l4 897 -290 0 -290 0 -4 -862 c-3 -772 -5 -870 -20 -926 -65 -242 -193 -328
-502 -339 -221 -8 -344 27 -451 129 -61 57 -94 114 -121 205 -16 52 -18 143
-21 926 l-3 867 -290 0 -290 0 3 -907z"/>
<path d="M21940 10605 l0 -1265 663 0 c718 0 758 3 929 56 169 53 361 173 469
292 220 245 321 572 306 997 -9 239 -42 390 -123 561 -147 311 -417 515 -779
589 -136 28 -310 34 -897 35 l-568 0 0 -1265z m1214 780 c266 -46 439 -190
515 -429 65 -204 75 -473 25 -670 -58 -230 -220 -400 -439 -463 -50 -14 -116
-18 -397 -21 l-338 -3 0 800 0 801 274 0 c198 0 297 -4 360 -15z"/>
<path d="M24730 10605 l0 -1265 1015 0 1015 0 0 230 0 230 -725 0 -725 0 2
313 3 312 648 3 647 2 0 210 0 210 -647 2 -648 3 -3 273 -2 272 710 0 710 0 0
235 0 235 -1000 0 -1000 0 0 -1265z"/>
<path d="M27170 10605 l0 -1265 270 0 270 0 0 839 c0 462 3 842 8 845 4 2 257
-375 562 -839 l555 -844 298 0 297 -1 0 1265 0 1265 -275 0 -275 0 0 -852 c0
-546 -3 -849 -10 -842 -5 5 -259 387 -564 849 l-554 840 -291 3 -291 2 0
-1265z"/>
<path d="M29750 11635 l0 -235 400 0 400 0 0 -1030 0 -1030 295 0 295 0 0
1030 0 1030 400 0 400 0 0 235 0 235 -1095 0 -1095 0 0 -235z"/>
<path d="M14440 7005 l0 -1265 175 0 175 0 0 580 0 580 615 0 615 0 0 140 0
140 -615 0 -615 0 0 405 0 405 705 0 705 0 0 140 0 140 -880 0 -880 0 0 -1265z"/>
<path d="M16580 7425 c0 -534 4 -881 11 -942 13 -117 49 -245 95 -338 110
-224 349 -382 669 -440 122 -22 404 -31 532 -16 207 24 416 103 545 205 164
130 265 332 297 591 7 59 11 381 11 938 l0 847 -175 0 -175 0 0 -820 c0 -519
-4 -856 -11 -917 -40 -361 -246 -552 -624 -578 -204 -14 -430 34 -557 119
-119 79 -204 204 -244 361 -16 64 -18 147 -21 953 l-4 882 -175 0 -174 0 0
-845z"/>
<path d="M19310 7005 l0 -1265 170 0 170 0 0 1017 c0 696 3 1014 10 1007 6 -6
322 -462 703 -1015 l693 -1004 197 -3 197 -2 0 1265 0 1265 -170 0 -170 0 -2
-1032 -3 -1033 -710 1032 -710 1033 -187 0 -188 0 0 -1265z"/>
<path d="M22040 7006 l0 -1267 598 4 c575 3 601 4 697 26 55 12 134 34 175 48
490 167 730 574 730 1235 0 409 -104 701 -321 902 -134 123 -291 205 -494 256
-187 47 -255 52 -837 57 l-548 5 0 -1266z m1060 974 c161 -12 265 -37 380 -92
69 -33 101 -57 170 -127 121 -121 175 -233 217 -446 27 -137 25 -476 -4 -605
-79 -363 -267 -569 -608 -667 -51 -14 -120 -17 -462 -21 l-403 -3 0 985 0 986
288 0 c158 0 348 -5 422 -10z"/>
<path d="M11045 7570 c-318 -27 -590 -146 -790 -345 -130 -128 -238 -311 -288
-485 -48 -167 -62 -432 -32 -606 44 -249 159 -468 333 -636 165 -158 355 -257
607 -313 96 -22 421 -31 556 -16 195 23 404 78 567 151 l72 33 0 608 0 609
-475 0 -475 0 0 -225 0 -225 220 0 220 0 0 -210 0 -209 -64 -20 c-35 -11 -111
-25 -168 -31 -396 -45 -692 133 -790 475 -30 107 -33 354 -4 455 58 206 191
365 378 449 88 40 166 55 288 53 179 -1 336 -58 453 -163 l51 -46 171 194 c93
107 171 198 173 202 5 13 -125 107 -208 150 -220 115 -530 173 -795 151z"/>
<path d="M5720 7275 l0 -235 325 0 325 0 0 -915 0 -915 275 0 275 0 0 915 0
915 325 0 325 0 0 235 0 235 -925 0 -925 0 0 -235z"/>
<path d="M7990 6360 l0 -1150 275 0 275 0 0 450 0 450 445 0 445 0 0 230 0
230 -445 0 -445 0 0 235 0 235 480 0 480 0 0 235 0 235 -755 0 -755 0 0 -1150z"/>
</g>
</svg>
